<?xml version="1.0" encoding="utf-8"?>
<!-- Generator: Adobe Illustrator 27.0.1, SVG Export Plug-In . SVG Version: 6.00 Build 0)  -->
<svg version="1.1" id="Capa_1" xmlns="http://www.w3.org/2000/svg" xmlns:xlink="http://www.w3.org/1999/xlink" x="0px" y="0px"
	 viewBox="0 0 1631.8 1435.1" style="enable-background:new 0 0 1631.8 1435.1;" xml:space="preserve">
<style type="text/css">
	.st0{fill:#302E2E;}
</style>
<path class="st0" d="M1306.5,158.7l14.3,14.3c9.2,9.2,9.2,24.2,0,33.5L285.4,1241.8c-9.2,9.2-24.2,9.2-33.5,0l-14.3-14.3
	c-9.2-9.2-9.2-24.2,0-33.5L1273,158.7C1282.3,149.5,1297.3,149.5,1306.5,158.7z"/>
<path class="st0" d="M767.1,241c220.3,1.3,278.1,0,297.7,1.3l-39.3,126c-3.9-2.6-6.5-6.5-9.1-9.1C957.3,300.1,881.2,274,814.3,274
	c-103.7,0-187.5,64.3-157.3,175.8c57.8,212.5,456.5,255.8,422.4,519.3c-6.5,48.5-31.5,87.8-69.5,118
	c-108.9,86.5-225.5,70.8-491.9,70.8c-7.8,0-15.9,1.3-23.7,0l35.4-129.9c6.5,3.9,13,11.7,19.8,17.2c60.4,56.5,129.9,80,191.4,80
	c170.6,0,282-184.9-22.4-375.2c-426.3-265-209.9-510.3,48.4-509L767.1,241L767.1,241z"/>
<path class="st0" d="M1552,937.6c0,20.4-11.5,39.1-29.6,48.5l-521.3,267.5v-48.2c0-20.6,11.7-39.6,30.2-48.7L1469,938.9v-2.4
	l-437.6-217.7c-18.5-9.1-30.2-28-30.2-48.7v-48.2l521.3,267.5c18.2,9.3,29.6,28,29.6,48.5l0,0L1552,937.6L1552,937.6z"/>
<path class="st0" d="M80.2,486.8c0-20.6,10-39.8,25.9-49.1l472.4-283.1v52.1c0,20.9-10.2,40-26.3,49.5L158.6,485.7v2.4l393.5,229.4
	c16.1,9.3,26.3,28.5,26.3,49.5v52.2L105.8,536.1c-15.9-9.6-25.9-28.5-25.9-49.1l0,0L80.2,486.8z"/>
</svg>
