<?xml version="1.0" encoding="utf-8"?>
<!-- Generator: Adobe Illustrator 27.0.1, SVG Export Plug-In . SVG Version: 6.00 Build 0)  -->
<svg version="1.1" id="Capa_1" xmlns="http://www.w3.org/2000/svg" xmlns:xlink="http://www.w3.org/1999/xlink" x="0px" y="0px"
	 viewBox="0 0 138.6 85.8" style="enable-background:new 0 0 138.6 85.8;" xml:space="preserve">
<style type="text/css">
	.st0{fill:#302E2E;}
</style>
<path class="st0" d="M38.2,42.3c1.3-1.4,2.5-3.6,2.5-5.9V5.9c0-2.3-1.2-4.5-2.5-5.9h12.6c-1.4,1.4-2.5,3.6-2.5,5.9v30.5
	c0,2.3,1.2,4.5,2.5,5.9L38.2,42.3L38.2,42.3z"/>
<path class="st0" d="M51.6,9.2c1.2-3.6,1.6-6.5,2.9-9.2h3.9c-1.8,2.3-3,4.9-5.2,9.2C53.1,9.2,51.6,9.2,51.6,9.2z"/>
<path class="st0" d="M52.4,15.1c0.7-2.5,3.1-4.4,5.7-4.7h0.5c0.2,0.1,0.4,0.1,0.5,0.1c1.6,0.4,2.8,1.2,3.8,2.6c0.5,0.9,0.8,1.9,1,3
	v2.3c2-2.8,5-7.7,11-7.9h0.7c0.7,0.1,1.5,0.1,2.3,0.3c0.3,0.1,0.7,0.2,1,0.2c4,1.1,5.5,4.6,6,7.9c2-4.2,6.2-8.3,11.2-8.4h0.7
	c8.6,0.5,9.7,6.2,9.7,13.8v12.1c0,2.3,1.2,4.5,2.5,5.9H96.6c1.4-1.4,2.5-3.6,2.5-5.9V19.9c-0.2-3.7-2.6-5.9-5.4-5.9
	c-3.7,0-8.2,3.9-8.4,13.3v9c0,2.3,1.2,4.5,2.5,5.9H75.3c1.3-1.4,2.5-3.6,2.5-5.9V19.6c-0.2-3-2.2-5.6-5.4-5.6
	c-3.9,0-8.5,4.3-8.5,14.5v8c0.1,2.3,1.2,4.5,2.5,5.8H53.9c1.4-1.4,2.5-3.6,2.5-5.9V20.5c0-4-0.1-3.9-0.4-4.4c-0.3-0.6-0.8-1-1.7-1
	c-0.5,0-1.2,0.1-1.9,0.5C52.5,15.4,52.4,15.3,52.4,15.1L52.4,15.1z"/>
<path class="st0" d="M110.3,32.2c0.8-1.8,2.7-2.8,4.1-2.2c1.1,0.5,1.6,1.8,1.5,3.1c0,1.1-0.8,2.9-0.8,2.9c-1.2,2.4-2.8,3.1-3.6,3.1
	c-0.3,0-0.4-0.1-0.2-0.4c0.7-0.8,1.1-1.2,1.4-1.9C110.4,37.3,109.3,34.7,110.3,32.2L110.3,32.2z"/>
<path class="st0" d="M13.4,42.5c10.1,0.1,12.8,0,13.7,0.1l-1.8,5.8c-0.2-0.1-0.3-0.3-0.4-0.4c-2.7-2.7-6.2-3.9-9.3-3.9
	c-4.8,0-8.6,3-7.2,8.1c2.7,9.8,21,11.8,19.4,23.9c-0.3,2.2-1.5,4-3.2,5.4c-5,4-10.4,3.3-22.6,3.3c-0.4,0-0.7,0.1-1.1,0l1.6-6
	c0.3,0.2,0.6,0.5,0.9,0.8c2.8,2.6,6,3.7,8.8,3.7c7.9,0,13-8.5-1-17.3C-8.5,53.7,1.5,42.4,13.4,42.5L13.4,42.5z"/>
<path class="st0" d="M58.6,55.4c0.7-2.5,3.1-4.4,5.7-4.7h0.5c0.2,0.1,0.4,0.1,0.5,0.1c1.6,0.4,2.8,1.2,3.8,2.6c0.5,0.9,0.8,1.9,1,3
	v2.3c2-2.8,4.9-7.7,11-7.9h0.7c2.3,0.1,4.8,0.7,6.5,2.3l-5.1,4.1c-1-1.8-2.7-2.8-4.6-2.8c-3.9,0-8.5,4.3-8.5,14.5v8
	c0.1,2.3,1.2,4.5,2.5,5.8H60.1c1.4-1.4,2.5-3.6,2.5-5.9V60.7c0-4-0.1-3.9-0.4-4.4c-0.3-0.6-0.8-1-1.7-1c-0.5,0-1.2,0.1-1.9,0.5
	C58.6,55.6,58.6,55.5,58.6,55.4L58.6,55.4z"/>
<path class="st0" d="M86.9,68.7c6.9-2.1,14.7-4.7,11-11.7c-1-1.8-2.7-2.7-4.5-2.7c-3,0-6.3,2.7-6.2,8v0.3h-4.6
	c0-2.5,2.1-6.8,6.3-8.4c1.9-0.8,4.2-1.3,6.5-1.3c5.4,0,10.9,2.8,10.8,11.5c-0.1,8.7-0.2,13.1-0.1,13.7c0.2,1.2,0.8,2,2,2
	c0.5,0,1.1-0.2,1.8-0.5c0.1,0.2,0.2,0.3,0.1,0.4c-0.7,2.9-3.3,4.6-5.9,4.6c-2.1,0-4.2-1.2-5.1-3.6c-2.8,2.3-5.9,3.7-9.3,3.7
	c-1.2,0-2.3-0.1-3.6-0.5C78.3,82.2,79.1,71,86.9,68.7L86.9,68.7z M87.4,77.2c0.2,3.6,3,5,5.7,5c2.5,0,5-1.2,5.6-2.9
	c-0.1-0.4,0-15,0-15.5C95.1,69.4,86.8,69.3,87.4,77.2z"/>
<path class="st0" d="M35.4,66.5c6.9-2.1,14.7-4.7,11-11.7c-1-1.8-2.7-2.7-4.5-2.7c-3,0-6.3,2.7-6.2,8v0.3h-4.6c0-2.5,2-6.8,6.3-8.4
	c1.9-0.8,4.2-1.3,6.5-1.3c5.4,0,10.9,2.8,10.8,11.5c-0.1,8.7-0.2,13.1-0.1,13.7c0.2,1.2,0.8,2,2,2c0.5,0,1.1-0.2,1.8-0.5
	c0.1,0.2,0.2,0.3,0.1,0.4c-0.7,2.9-3.3,4.6-5.9,4.6c-2.1,0-4.2-1.2-5.1-3.6c-2.8,2.3-5.9,3.7-9.3,3.7c-1.2,0-2.3-0.1-3.6-0.5
	C26.9,80,27.6,68.7,35.4,66.5L35.4,66.5z M35.9,75c0.2,3.6,3,5,5.7,5c2.5,0,5-1.2,5.6-2.9c-0.1-0.4,0-15,0-15.5
	C43.6,67.2,35.3,67,35.9,75z"/>
<path class="st0" d="M138.6,71.2c0,0.9-0.5,1.8-1.4,2.2l-24,12.3v-2.2c0-0.9,0.5-1.8,1.4-2.2l20.1-10v-0.1l-20.1-10
	c-0.8-0.4-1.4-1.3-1.4-2.2v-2.2l24,12.3C138.1,69.4,138.6,70.3,138.6,71.2L138.6,71.2L138.6,71.2z"/>
<path class="st0" d="M14.4,24.5c0-1,0.5-1.8,1.2-2.3l21.7-13v2.4c0,1-0.5,1.8-1.2,2.3L18,24.4v0.1l18.1,10.6
	c0.7,0.4,1.2,1.3,1.2,2.3v2.4l-21.8-13C14.8,26.3,14.3,25.4,14.4,24.5L14.4,24.5L14.4,24.5z"/>
<path class="st0" d="M114.4,21.7c0.3-0.6,0.7-1,1.2-1.4c0.6-0.5,1.3-0.8,2.2-0.7c1.3,0.1,2.2,1.2,2.1,2.6c-0.1,0.7-0.3,1.4-0.7,2
	c-0.8,1.3-1.8,2.4-3,3.4c-0.5,0.5-1.1,0.9-1.7,1.4c-0.1,0.1-0.2,0.1-0.2,0c-1.7-1.3-3.3-2.7-4.5-4.5c-0.4-0.7-0.8-1.4-0.8-2.2
	c-0.1-1.4,0.8-2.5,2.1-2.6c0.8-0.1,1.5,0.2,2.1,0.7c0.4,0.3,0.8,0.8,1.1,1.2C114.3,21.6,114.4,21.6,114.4,21.7L114.4,21.7z"/>
</svg>
